<svg width="500" height="500" viewBox="0 0 1024 1024" fill="none" xmlns="http://www.w3.org/2000/svg">
  <defs>
    <linearGradient id="tealGradient" x1="0%" y1="0%" x2="100%" y2="100%">
      <stop offset="0%" stop-color="#00E5BF"/>
      <stop offset="100%" stop-color="#00A896"/>
    </linearGradient>
  </defs>
  
  <!-- Background -->
  <rect width="1024" height="1024" fill="#000000"/>
  
  <!-- The Y Shape (Optimized for Teal) -->
  <path d="M250 250 
           L450 550 
           Q512 640 574 550 
           L774 250
           L850 250
           L600 600
           Q512 720 424 600
           L174 250
           Z" fill="url(#tealGradient)"/>
           
  <!-- The Tail/Hook (Modernized) -->
  <path d="M512 680
           Q512 850 350 850
           L350 750
           Q450 750 450 650
           L512 580
           Z" fill="url(#tealGradient)"/>

  <!-- The Star (Accent) -->
  <path d="M512 200 
           Q530 250 562 250 
           Q530 250 512 300 
           Q494 250 462 250 
           Q494 250 512 200 Z" fill="#00E5BF"/>
</svg>